<svg width="141px" height="121px" viewBox="0 0 141 121" version="1.1" xmlns="http://www.w3.org/2000/svg" xmlns:xlink="http://www.w3.org/1999/xlink">
    <g stroke="#fff" stroke-width="2" fill="#FFA631" fill-rule="evenodd">
        <path d="M8,41 C3.581722,41 0,37.418278 0,33 C0,28.581722 3.581722,25 8,25 C12.418278,25 16,28.581722 16,33 C16,37.418278 12.418278,41 8,41 Z M23.5,121 C21.5670034,121 20,119.432997 20,117.5 C20,115.567003 21.5670034,114 23.5,114 C25.4329966,114 27,115.567003 27,117.5 C27,119.432997 25.4329966,121 23.5,121 Z M133,37 C128.581722,37 125,33.418278 125,29 C125,24.581722 128.581722,21 133,21 C137.418278,21 141,24.581722 141,29 C141,33.418278 137.418278,37 133,37 Z M79.5,9 C77.0147186,9 75,6.98528137 75,4.5 C75,2.01471863 77.0147186,0 79.5,0 C81.9852814,0 84,2.01471863 84,4.5 C84,6.98528137 81.9852814,9 79.5,9 Z M134,79 C131.790861,79 130,77.209139 130,75 C130,72.790861 131.790861,71 134,71 C136.209139,71 138,72.790861 138,75 C138,77.209139 136.209139,79 134,79 Z M48,17 C46.8954305,17 46,16.1045695 46,15 C46,13.8954305 46.8954305,13 48,13 C49.1045695,13 50,13.8954305 50,15 C50,16.1045695 49.1045695,17 48,17 Z" id="Combined-Shape" fill="#30CF6D"></path>
    </g>
</svg>